<?xml version='1.0' encoding='utf-8'?>
<svg xmlns="http://www.w3.org/2000/svg" viewBox="0 0 11000 1000" version="1.2" x="0in" width="1.1in" baseProfile="tiny"  height="0.1in" y="0in">
    <desc>
        <referenceFile>generic_female_pin_header_11_100mil_bread.svg</referenceFile>
    </desc>
    <g id="breadboard">
        <rect fill="#404040" width="11000" height="1000"/>
        <rect fill="none" id="connector0pin" x="306.727" width="386.544" height="386.544" y="306.727"/>
        <rect fill="none" id="connector0terminal" x="349.77" width="299.763" height="313.414" y="343.131"/>
        <rect x="306.727" width="386.544" height="386.544" y="306.727"/>
        <polygon points="164.507,164.507 306.727,306.727 693.272,306.727 835.631,164.507 &#x9;" fill="#2A2A29"/>
        <polygon points="835.631,164.507 693.272,306.727 693.272,693.272 835.631,835.631 &#x9;" fill="#474747"/>
        <polygon points="835.631,835.631 693.272,693.272 306.727,693.272 164.507,835.631 &#x9;" fill="#595959"/>
        <polygon points="164.507,835.631 306.727,693.272 306.727,306.727 164.507,164.507 &#x9;" fill="#373737"/>
        <rect fill="none" id="connector1pin" x="1306.73" width="386.544" height="386.544" y="306.727"/>
        <rect fill="none" id="connector1terminal" x="1349.77" width="299.763" height="313.414" y="343.131"/>
        <rect x="1306.73" width="386.544" height="386.544" y="306.727"/>
        <polygon points="1164.51,164.507 1306.73,306.727 1693.27,306.727 1835.63,164.507 &#x9;" fill="#2A2A29"/>
        <polygon points="1835.63,164.507 1693.27,306.727 1693.27,693.272 1835.63,835.631 &#x9;" fill="#474747"/>
        <polygon points="1835.63,835.631 1693.27,693.272 1306.73,693.272 1164.51,835.631 &#x9;" fill="#595959"/>
        <polygon points="1164.51,835.631 1306.73,693.272 1306.73,306.727 1164.51,164.507 &#x9;" fill="#373737"/>
        <rect fill="none" id="connector2pin" x="2306.73" width="386.544" height="386.544" y="306.727"/>
        <rect fill="none" id="connector2terminal" x="2349.77" width="299.763" height="313.414" y="343.131"/>
        <rect x="2306.73" width="386.544" height="386.544" y="306.727"/>
        <polygon points="2164.51,164.507 2306.73,306.727 2693.27,306.727 2835.63,164.507 &#x9;" fill="#2A2A29"/>
        <polygon points="2835.63,164.507 2693.27,306.727 2693.27,693.272 2835.63,835.631 &#x9;" fill="#474747"/>
        <polygon points="2835.63,835.631 2693.27,693.272 2306.73,693.272 2164.51,835.631 &#x9;" fill="#595959"/>
        <polygon points="2164.51,835.631 2306.73,693.272 2306.73,306.727 2164.51,164.507 &#x9;" fill="#373737"/>
        <rect fill="none" id="connector3pin" x="3306.73" width="386.544" height="386.544" y="306.727"/>
        <rect fill="none" id="connector3terminal" x="3349.77" width="299.763" height="313.414" y="343.131"/>
        <rect x="3306.73" width="386.544" height="386.544" y="306.727"/>
        <polygon points="3164.51,164.507 3306.73,306.727 3693.27,306.727 3835.63,164.507 &#x9;" fill="#2A2A29"/>
        <polygon points="3835.63,164.507 3693.27,306.727 3693.27,693.272 3835.63,835.631 &#x9;" fill="#474747"/>
        <polygon points="3835.63,835.631 3693.27,693.272 3306.73,693.272 3164.51,835.631 &#x9;" fill="#595959"/>
        <polygon points="3164.51,835.631 3306.73,693.272 3306.73,306.727 3164.51,164.507 &#x9;" fill="#373737"/>
        <rect fill="none" id="connector4pin" x="4306.73" width="386.544" height="386.544" y="306.727"/>
        <rect fill="none" id="connector4terminal" x="4349.77" width="299.763" height="313.414" y="343.131"/>
        <rect x="4306.73" width="386.544" height="386.544" y="306.727"/>
        <polygon points="4164.51,164.507 4306.73,306.727 4693.27,306.727 4835.63,164.507 &#x9;" fill="#2A2A29"/>
        <polygon points="4835.63,164.507 4693.27,306.727 4693.27,693.272 4835.63,835.631 &#x9;" fill="#474747"/>
        <polygon points="4835.63,835.631 4693.27,693.272 4306.73,693.272 4164.51,835.631 &#x9;" fill="#595959"/>
        <polygon points="4164.51,835.631 4306.73,693.272 4306.73,306.727 4164.51,164.507 &#x9;" fill="#373737"/>
        <rect fill="none" id="connector5pin" x="5306.73" width="386.544" height="386.544" y="306.727"/>
        <rect fill="none" id="connector5terminal" x="5349.77" width="299.763" height="313.414" y="343.131"/>
        <rect x="5306.73" width="386.544" height="386.544" y="306.727"/>
        <polygon points="5164.51,164.507 5306.73,306.727 5693.27,306.727 5835.63,164.507 &#x9;" fill="#2A2A29"/>
        <polygon points="5835.63,164.507 5693.27,306.727 5693.27,693.272 5835.63,835.631 &#x9;" fill="#474747"/>
        <polygon points="5835.63,835.631 5693.27,693.272 5306.73,693.272 5164.51,835.631 &#x9;" fill="#595959"/>
        <polygon points="5164.51,835.631 5306.73,693.272 5306.73,306.727 5164.51,164.507 &#x9;" fill="#373737"/>
        <rect fill="none" id="connector6pin" x="6306.73" width="386.544" height="386.544" y="306.727"/>
        <rect fill="none" id="connector6terminal" x="6349.77" width="299.763" height="313.414" y="343.131"/>
        <rect x="6306.73" width="386.544" height="386.544" y="306.727"/>
        <polygon points="6164.51,164.507 6306.73,306.727 6693.27,306.727 6835.63,164.507 &#x9;" fill="#2A2A29"/>
        <polygon points="6835.63,164.507 6693.27,306.727 6693.27,693.272 6835.63,835.631 &#x9;" fill="#474747"/>
        <polygon points="6835.63,835.631 6693.27,693.272 6306.73,693.272 6164.51,835.631 &#x9;" fill="#595959"/>
        <polygon points="6164.51,835.631 6306.73,693.272 6306.73,306.727 6164.51,164.507 &#x9;" fill="#373737"/>
        <rect fill="none" id="connector7pin" x="7306.73" width="386.544" height="386.544" y="306.727"/>
        <rect fill="none" id="connector7terminal" x="7349.77" width="299.763" height="313.414" y="343.131"/>
        <rect x="7306.73" width="386.544" height="386.544" y="306.727"/>
        <polygon points="7164.51,164.507 7306.73,306.727 7693.27,306.727 7835.63,164.507 &#x9;" fill="#2A2A29"/>
        <polygon points="7835.63,164.507 7693.27,306.727 7693.27,693.272 7835.63,835.631 &#x9;" fill="#474747"/>
        <polygon points="7835.63,835.631 7693.27,693.272 7306.73,693.272 7164.51,835.631 &#x9;" fill="#595959"/>
        <polygon points="7164.51,835.631 7306.73,693.272 7306.73,306.727 7164.51,164.507 &#x9;" fill="#373737"/>
        <rect fill="none" id="connector8pin" x="8306.73" width="386.544" height="386.544" y="306.727"/>
        <rect fill="none" id="connector8terminal" x="8349.77" width="299.763" height="313.414" y="343.131"/>
        <rect x="8306.73" width="386.544" height="386.544" y="306.727"/>
        <polygon points="8164.51,164.507 8306.73,306.727 8693.27,306.727 8835.63,164.507 &#x9;" fill="#2A2A29"/>
        <polygon points="8835.63,164.507 8693.27,306.727 8693.27,693.272 8835.63,835.631 &#x9;" fill="#474747"/>
        <polygon points="8835.63,835.631 8693.27,693.272 8306.73,693.272 8164.51,835.631 &#x9;" fill="#595959"/>
        <polygon points="8164.51,835.631 8306.73,693.272 8306.73,306.727 8164.51,164.507 &#x9;" fill="#373737"/>
        <rect fill="none" id="connector9pin" x="9306.73" width="386.544" height="386.544" y="306.727"/>
        <rect fill="none" id="connector9terminal" x="9349.77" width="299.763" height="313.414" y="343.131"/>
        <rect x="9306.73" width="386.544" height="386.544" y="306.727"/>
        <polygon points="9164.51,164.507 9306.73,306.727 9693.27,306.727 9835.63,164.507 &#x9;" fill="#2A2A29"/>
        <polygon points="9835.63,164.507 9693.27,306.727 9693.27,693.272 9835.63,835.631 &#x9;" fill="#474747"/>
        <polygon points="9835.63,835.631 9693.27,693.272 9306.73,693.272 9164.51,835.631 &#x9;" fill="#595959"/>
        <polygon points="9164.51,835.631 9306.73,693.272 9306.73,306.727 9164.51,164.507 &#x9;" fill="#373737"/>
        <rect fill="none" id="connector10pin" x="10306.7" width="386.544" height="386.544" y="306.727"/>
        <rect fill="none" id="connector10terminal" x="10349.8" width="299.763" height="313.414" y="343.131"/>
        <rect x="10306.7" width="386.544" height="386.544" y="306.727"/>
        <polygon points="10164.5,164.507 10306.7,306.727 10693.3,306.727 10835.6,164.507 &#x9;" fill="#2A2A29"/>
        <polygon points="10835.6,164.507 10693.3,306.727 10693.3,693.272 10835.6,835.631 &#x9;" fill="#474747"/>
        <polygon points="10835.6,835.631 10693.3,693.272 10306.7,693.272 10164.5,835.631 &#x9;" fill="#595959"/>
        <polygon points="10164.5,835.631 10306.7,693.272 10306.7,306.727 10164.5,164.507 &#x9;" fill="#373737"/>
    </g>
</svg>
