<?xml version='1.0' encoding='utf-8'?>
<svg xmlns="http://www.w3.org/2000/svg" viewBox="0 0 14.4 79.2" id="svg2" xmlns:svg="http://www.w3.org/2000/svg" version="1.2" x="0in" width="0.2in" baseProfile="tiny"  height="1.1in" y="0in">
    <desc>
        <referenceFile>generic_female_pin_header_11_100mil_10thin_schematic.svg</referenceFile>
    </desc>
    <g id="schematic">
        <line x1="0.35" stroke="#000000" fill="none" id="connector0pin" stroke-linejoin="round" y2="3.6" stroke-linecap="round" stroke-width="0.7" x2="7.346" y1="3.6"/>
        <rect fill="none" id="connector0terminal" x="-0.252" width="0.546" height="0.208" y="3.504"/>
        <polyline points="14.1,5.557 9.928,3.6 14.1,1.643" stroke="#000000" fill="none" stroke-linejoin="round" stroke-linecap="round" stroke-width="0.7"/>
        <line x1="10.11" stroke="#000000" fill="none" id="line" stroke-linejoin="round" y2="3.6" stroke-linecap="round" stroke-width="0.7" x2="4.804" y1="3.6"/>
        <text stroke="none" fill="#8c8c8c" font-family="'Droid Sans'" font-size="2.5" text-anchor="middle" x="5.05" stroke-width="0" class="text" y="2.58">1</text>
        <line x1="0.35" stroke="#000000" fill="none" id="connector1pin" stroke-linejoin="round" y2="10.8" stroke-linecap="round" stroke-width="0.7" x2="7.346" y1="10.8"/>
        <rect fill="none" id="connector1terminal" x="-0.252" width="0.546" height="0.208" y="10.704"/>
        <polyline points="14.1,12.757 9.928,10.8 14.1,8.843" stroke="#000000" fill="none" stroke-linejoin="round" stroke-linecap="round" stroke-width="0.7"/>
        <line x1="10.11" stroke="#000000" fill="none" id="line" stroke-linejoin="round" y2="10.8" stroke-linecap="round" stroke-width="0.7" x2="4.804" y1="10.8"/>
        <text stroke="none" fill="#8c8c8c" font-family="'Droid Sans'" font-size="2.5" text-anchor="middle" x="5.05" stroke-width="0" class="text" y="9.78">2</text>
        <line x1="0.35" stroke="#000000" fill="none" id="connector2pin" stroke-linejoin="round" y2="18" stroke-linecap="round" stroke-width="0.7" x2="7.346" y1="18"/>
        <rect fill="none" id="connector2terminal" x="-0.252" width="0.546" height="0.208" y="17.904"/>
        <polyline points="14.1,19.957 9.928,18 14.1,16.043" stroke="#000000" fill="none" stroke-linejoin="round" stroke-linecap="round" stroke-width="0.7"/>
        <line x1="10.11" stroke="#000000" fill="none" id="line" stroke-linejoin="round" y2="18" stroke-linecap="round" stroke-width="0.7" x2="4.804" y1="18"/>
        <text stroke="none" fill="#8c8c8c" font-family="'Droid Sans'" font-size="2.5" text-anchor="middle" x="5.05" stroke-width="0" class="text" y="16.98">3</text>
        <line x1="0.35" stroke="#000000" fill="none" id="connector3pin" stroke-linejoin="round" y2="25.2" stroke-linecap="round" stroke-width="0.7" x2="7.346" y1="25.2"/>
        <rect fill="none" id="connector3terminal" x="-0.252" width="0.546" height="0.208" y="25.104"/>
        <polyline points="14.1,27.157 9.928,25.2 14.1,23.243" stroke="#000000" fill="none" stroke-linejoin="round" stroke-linecap="round" stroke-width="0.7"/>
        <line x1="10.11" stroke="#000000" fill="none" id="line" stroke-linejoin="round" y2="25.2" stroke-linecap="round" stroke-width="0.7" x2="4.804" y1="25.2"/>
        <text stroke="none" fill="#8c8c8c" font-family="'Droid Sans'" font-size="2.5" text-anchor="middle" x="5.05" stroke-width="0" class="text" y="24.18">4</text>
        <line x1="0.35" stroke="#000000" fill="none" id="connector4pin" stroke-linejoin="round" y2="32.4" stroke-linecap="round" stroke-width="0.7" x2="7.346" y1="32.4"/>
        <rect fill="none" id="connector4terminal" x="-0.252" width="0.546" height="0.208" y="32.304"/>
        <polyline points="14.1,34.357 9.928,32.4 14.1,30.443" stroke="#000000" fill="none" stroke-linejoin="round" stroke-linecap="round" stroke-width="0.7"/>
        <line x1="10.11" stroke="#000000" fill="none" id="line" stroke-linejoin="round" y2="32.4" stroke-linecap="round" stroke-width="0.7" x2="4.804" y1="32.4"/>
        <text stroke="none" fill="#8c8c8c" font-family="'Droid Sans'" font-size="2.5" text-anchor="middle" x="5.05" stroke-width="0" class="text" y="31.38">5</text>
        <line x1="0.35" stroke="#000000" fill="none" id="connector5pin" stroke-linejoin="round" y2="39.6" stroke-linecap="round" stroke-width="0.7" x2="7.346" y1="39.6"/>
        <rect fill="none" id="connector5terminal" x="-0.252" width="0.546" height="0.208" y="39.504"/>
        <polyline points="14.1,41.557 9.928,39.6 14.1,37.643" stroke="#000000" fill="none" stroke-linejoin="round" stroke-linecap="round" stroke-width="0.7"/>
        <line x1="10.11" stroke="#000000" fill="none" id="line" stroke-linejoin="round" y2="39.6" stroke-linecap="round" stroke-width="0.7" x2="4.804" y1="39.6"/>
        <text stroke="none" fill="#8c8c8c" font-family="'Droid Sans'" font-size="2.5" text-anchor="middle" x="5.05" stroke-width="0" class="text" y="38.58">6</text>
        <line x1="0.35" stroke="#000000" fill="none" id="connector6pin" stroke-linejoin="round" y2="46.8" stroke-linecap="round" stroke-width="0.7" x2="7.346" y1="46.8"/>
        <rect fill="none" id="connector6terminal" x="-0.252" width="0.546" height="0.208" y="46.704"/>
        <polyline points="14.1,48.757 9.928,46.8 14.1,44.843" stroke="#000000" fill="none" stroke-linejoin="round" stroke-linecap="round" stroke-width="0.7"/>
        <line x1="10.11" stroke="#000000" fill="none" id="line" stroke-linejoin="round" y2="46.8" stroke-linecap="round" stroke-width="0.7" x2="4.804" y1="46.8"/>
        <text stroke="none" fill="#8c8c8c" font-family="'Droid Sans'" font-size="2.5" text-anchor="middle" x="5.05" stroke-width="0" class="text" y="45.78">7</text>
        <line x1="0.35" stroke="#000000" fill="none" id="connector7pin" stroke-linejoin="round" y2="54" stroke-linecap="round" stroke-width="0.7" x2="7.346" y1="54"/>
        <rect fill="none" id="connector7terminal" x="-0.252" width="0.546" height="0.208" y="53.904"/>
        <polyline points="14.1,55.957 9.928,54 14.1,52.043" stroke="#000000" fill="none" stroke-linejoin="round" stroke-linecap="round" stroke-width="0.7"/>
        <line x1="10.11" stroke="#000000" fill="none" id="line" stroke-linejoin="round" y2="54" stroke-linecap="round" stroke-width="0.7" x2="4.804" y1="54"/>
        <text stroke="none" fill="#8c8c8c" font-family="'Droid Sans'" font-size="2.5" text-anchor="middle" x="5.05" stroke-width="0" class="text" y="52.98">8</text>
        <line x1="0.35" stroke="#000000" fill="none" id="connector8pin" stroke-linejoin="round" y2="61.2" stroke-linecap="round" stroke-width="0.7" x2="7.346" y1="61.2"/>
        <rect fill="none" id="connector8terminal" x="-0.252" width="0.546" height="0.208" y="61.104"/>
        <polyline points="14.1,63.157 9.928,61.2 14.1,59.243" stroke="#000000" fill="none" stroke-linejoin="round" stroke-linecap="round" stroke-width="0.7"/>
        <line x1="10.11" stroke="#000000" fill="none" id="line" stroke-linejoin="round" y2="61.2" stroke-linecap="round" stroke-width="0.7" x2="4.804" y1="61.2"/>
        <text stroke="none" fill="#8c8c8c" font-family="'Droid Sans'" font-size="2.5" text-anchor="middle" x="5.05" stroke-width="0" class="text" y="60.18">9</text>
        <line x1="0.35" stroke="#000000" fill="none" id="connector9pin" stroke-linejoin="round" y2="68.4" stroke-linecap="round" stroke-width="0.7" x2="7.346" y1="68.4"/>
        <rect fill="none" id="connector9terminal" x="-0.252" width="0.546" height="0.208" y="68.304"/>
        <polyline points="14.1,70.357 9.928,68.4 14.1,66.443" stroke="#000000" fill="none" stroke-linejoin="round" stroke-linecap="round" stroke-width="0.7"/>
        <line x1="10.11" stroke="#000000" fill="none" id="line" stroke-linejoin="round" y2="68.4" stroke-linecap="round" stroke-width="0.7" x2="4.804" y1="68.4"/>
        <text stroke="none" fill="#8c8c8c" font-family="'Droid Sans'" font-size="2.5" text-anchor="middle" x="5.05" stroke-width="0" class="text" y="67.38">10</text>
        <line x1="0.35" stroke="#000000" fill="none" id="connector10pin" stroke-linejoin="round" y2="75.6" stroke-linecap="round" stroke-width="0.7" x2="7.346" y1="75.6"/>
        <rect fill="none" id="connector10terminal" x="-0.252" width="0.546" height="0.208" y="75.504"/>
        <polyline points="14.1,77.557 9.928,75.6 14.1,73.643" stroke="#000000" fill="none" stroke-linejoin="round" stroke-linecap="round" stroke-width="0.7"/>
        <line x1="10.11" stroke="#000000" fill="none" id="line" stroke-linejoin="round" y2="75.6" stroke-linecap="round" stroke-width="0.7" x2="4.804" y1="75.6"/>
        <text stroke="none" fill="#8c8c8c" font-family="'Droid Sans'" font-size="2.5" text-anchor="middle" x="5.05" stroke-width="0" class="text" y="74.58">11</text>
    </g>
</svg>
